<!--?xml version="1.0" standalone="no"?--><svg version="1.0" xmlns="http://www.w3.org/2000/svg" width="297.000000pt" height="300.000000pt" viewBox="0 0 297.000000 300.000000" preserveAspectRatio="xMidYMid meet">
<metadata>
  <rdf:rdf xmlns:rdf="http://www.w3.org/1999/02/22-rdf-syntax-ns#" xmlns:rdfs="http://www.w3.org/2000/01/rdf-schema#" xmlns:dc="http://purl.org/dc/elements/1.1/">
    <rdf:description dc:title="four people clipart" dc:publisher="Hiox" dc:date="2015-04-28" dc:format="image/svg+xml" dc:language="en">
      <dc:creator>
        <rdf:bag>
          <rdf:li>svgimages.com</rdf:li>
        </rdf:bag>
      </dc:creator>
    </rdf:description>
  </rdf:rdf>
</metadata>
<g transform="translate(0.000000,300.000000) scale(0.100000,-0.100000)" fill="#040404" stroke="none">
<path d="M1171 2970 c-54 -21 -81 -64 -81 -130 0 -48 23 -134 40 -156 8 -9 7
-22 -4 -47 -17 -41 -56 -62 -134 -72 -60 -7 -119 -39 -146 -80 -25 -38 -39
-130 -41 -270 -1 -85 -6 -133 -18 -163 -14 -37 -16 -72 -12 -227 l5 -183 -69
-51 c-38 -28 -75 -60 -82 -71 -8 -12 -50 -33 -96 -49 -81 -29 -143 -64 -143
-82 0 -5 -7 -9 -15 -9 -21 0 -19 18 5 32 24 15 26 55 5 113 -8 21 -12 41 -9
44 2 3 -10 20 -28 38 -24 24 -41 33 -65 33 -73 0 -153 -56 -153 -107 0 -42 40
-104 88 -136 23 -16 42 -34 42 -41 0 -8 -24 -22 -52 -32 -65 -24 -77 -45 -82
-153 -3 -58 -10 -90 -24 -113 -11 -18 -30 -70 -42 -116 -11 -46 -29 -104 -40
-131 -12 -31 -15 -53 -9 -62 7 -12 9 -12 9 1 0 13 1 13 10 0 8 -12 10 -10 10
11 0 24 16 49 32 49 4 0 8 -7 8 -15 0 -8 5 -15 10 -15 12 0 12 4 0 58 -10 42
-8 47 40 131 27 48 50 94 50 103 0 9 5 20 10 23 13 8 13 -88 -1 -140 -12 -47
-24 -177 -23 -255 0 -30 1 -149 2 -265 1 -116 2 -217 1 -225 0 -8 0 -28 0 -45
0 -16 0 -43 -2 -60 -2 -27 1 -30 31 -33 34 -3 39 -11 21 -29 -21 -21 -2 -43
38 -43 56 0 66 10 52 49 -9 26 -8 35 3 49 13 15 13 30 2 112 -14 101 -8 483 7
443 10 -28 12 -200 3 -290 -5 -53 -3 -77 6 -88 8 -10 10 -29 6 -59 -8 -48 0
-56 55 -56 32 0 37 17 19 64 -9 24 -7 26 15 26 14 0 25 3 26 8 1 4 2 88 4 187
2 99 8 205 13 236 6 34 7 71 2 95 -5 23 -5 89 1 164 6 69 12 172 14 230 2 58
7 124 10 146 6 40 8 42 51 53 32 8 47 18 54 35 5 14 19 27 31 31 12 4 57 41
100 82 52 50 84 73 94 69 10 -3 30 8 55 32 50 47 53 82 10 122 -35 33 -36 48
-10 132 11 34 20 81 20 102 0 43 29 146 41 146 15 0 48 -134 45 -178 -2 -24
-6 -46 -10 -49 -3 -4 -6 -16 -6 -27 0 -12 -10 -50 -21 -86 -18 -55 -20 -80
-14 -162 8 -137 30 -262 71 -413 42 -154 116 -347 152 -394 22 -30 27 -50 36
-155 6 -67 10 -166 11 -221 0 -72 4 -103 13 -111 11 -8 12 -18 3 -50 -6 -21
-11 -58 -11 -80 l0 -41 46 -7 c75 -10 124 -7 124 7 0 6 -5 41 -11 76 -6 37 -6
67 -1 70 22 15 41 210 41 426 0 171 6 269 26 440 14 121 25 273 25 338 l0 118
39 68 c43 77 81 171 81 204 1 12 7 33 14 46 l14 25 14 -30 c8 -16 20 -56 27
-89 10 -50 10 -66 -2 -95 -36 -84 -48 -198 -41 -380 4 -116 11 -180 19 -190 7
-8 27 -64 45 -125 29 -97 33 -123 32 -220 0 -78 7 -148 24 -239 13 -71 24
-142 24 -158 0 -16 -14 -70 -30 -119 -17 -49 -28 -94 -25 -99 4 -6 30 -10 60
-10 66 0 69 6 65 145 -5 187 -2 243 14 298 19 64 20 109 5 157 -19 61 -5 380
17 387 8 3 13 -25 17 -84 3 -48 10 -137 17 -197 10 -88 10 -125 0 -192 -11
-71 -11 -93 1 -141 24 -99 17 -284 -16 -438 -8 -38 -15 -73 -15 -77 0 -10 86
-10 119 -1 23 6 24 7 16 87 -15 140 -10 235 15 351 21 94 25 137 25 300 1 161
4 203 23 274 12 47 28 89 37 93 13 8 15 38 15 188 0 228 -12 291 -85 434 l-55
109 32 56 33 56 16 -70 c10 -38 18 -83 18 -100 2 -42 22 -104 71 -220 42 -99
42 -99 31 -167 -16 -97 -14 -121 10 -136 19 -12 24 -10 48 16 14 16 47 37 73
46 41 15 49 23 58 54 5 20 10 47 10 59 0 12 5 25 10 28 13 8 13 -41 -1 -107
-9 -39 -9 -53 0 -56 6 -2 9 -7 7 -11 -3 -4 -9 -43 -15 -86 -9 -74 -8 -84 30
-222 22 -80 43 -175 46 -211 4 -46 11 -72 23 -82 10 -8 28 -55 40 -103 20 -77
22 -94 12 -138 -15 -65 -15 -122 0 -137 20 -20 56 -14 75 14 15 23 15 33 4 87
-7 34 -15 73 -17 87 -5 34 -5 192 0 198 3 2 17 -2 32 -10 43 -20 52 -47 42
-124 -10 -75 -2 -94 43 -94 27 0 59 22 59 41 0 5 -14 52 -31 105 -26 82 -29
100 -19 125 10 24 9 33 -10 64 -22 35 -22 38 -11 208 12 171 8 216 -24 290 -4
9 -3 17 3 17 6 0 6 14 -1 38 -7 25 -7 68 -1 123 l9 84 52 -100 c29 -55 76
-127 105 -159 43 -49 52 -64 50 -92 -3 -33 11 -46 22 -21 6 15 46 -28 46 -50
0 -8 5 -11 11 -7 16 10 2 53 -35 109 -33 50 -75 125 -148 263 -31 61 -37 81
-32 111 7 47 -22 84 -81 105 -34 11 -39 17 -36 37 1 13 6 26 10 29 15 12 38
66 33 79 -3 10 0 11 9 5 12 -7 12 -5 0 9 -7 9 -11 30 -9 47 3 16 1 30 -4 30
-4 0 -8 9 -8 20 0 11 -7 20 -15 20 -8 0 -15 4 -15 9 0 16 -75 48 -111 47 -79
-2 -149 -72 -135 -134 5 -21 4 -24 -5 -12 -9 12 -10 11 -6 -7 3 -13 1 -26 -4
-29 -5 -3 -9 -11 -9 -17 0 -7 4 -6 10 3 5 8 12 12 15 8 3 -3 -1 -13 -10 -21
-14 -14 -13 -17 5 -30 12 -8 22 -29 25 -49 5 -37 -6 -51 -67 -90 -33 -22 -47
-78 -27 -114 20 -38 -1 -150 -33 -172 -13 -9 -25 -16 -28 -15 -3 1 -10 33 -16
70 -36 220 -55 322 -65 353 -6 19 -13 107 -15 195 -4 107 -10 174 -21 203 -10
30 -12 46 -4 55 11 14 11 97 -1 97 -4 0 -16 19 -27 42 -14 32 -17 48 -9 61 12
24 2 81 -17 97 -8 6 -21 33 -30 59 -15 46 -67 107 -111 130 -34 17 -134 11
-170 -10 -41 -25 -84 -87 -100 -147 -8 -26 -19 -66 -26 -89 -10 -36 -10 -48 4
-76 23 -47 6 -100 -39 -121 -18 -8 -34 -12 -37 -8 -2 4 -10 35 -16 69 -19 96
-71 139 -183 151 -46 5 -63 11 -65 23 -2 12 8 19 34 26 36 8 38 10 50 71 7 35
10 91 7 129 -3 38 -5 87 -4 110 1 40 0 42 -36 52 -55 15 -131 12 -182 -9z
m919 -422 c0 -26 -15 -22 -28 7 -18 39 -14 50 8 30 11 -10 20 -26 20 -37z
m-439 -25 c-10 -17 -10 -16 -11 3 0 23 13 41 18 25 2 -6 -1 -18 -7 -28z m16
-35 c-3 -8 -6 -5 -6 6 -1 11 2 17 5 13 3 -3 4 -12 1 -19z m445 -150 c-7 -7
-12 -8 -12 -2 0 6 3 14 7 17 3 4 9 5 12 2 2 -3 -1 -11 -7 -17z m-588 -230 c6
-19 -1 -55 -29 -146 -32 -103 -40 -119 -50 -104 -9 13 -9 44 1 137 7 66 16
130 19 143 7 21 9 21 29 9 11 -8 25 -25 30 -39z" id="node1" class="node" stroke-width="20"></path>
</g>
<g transform="translate(0.000000,300.000000) scale(0.100000,-0.100000)" fill="#A0A0A0" stroke="none">








</g>
</svg>