<?xml version="1.0" encoding="utf-8"?>
<!DOCTYPE svg PUBLIC "-//W3C//DTD SVG 1.1//EN" "http://www.w3.org/Graphics/SVG/1.1/DTD/svg11.dtd">
<svg version="1.1" id="Layer_1" xmlns="http://www.w3.org/2000/svg" xmlns:xlink="http://www.w3.org/1999/xlink" x="0px" y="0px"
	 viewBox="0 0 813.0955 1745.0874" enable-background="new 0 0 813.0955 1745.0874" xml:space="preserve">
<path d="M778.6949,481.6096c-0.541-14.0417-6.5421-27.6598-2.8459-42.0675c1.1464-4.4688,0.7553-9.4756-0.8957-14.0688
	c-0.9875-2.7473-1.2497-5.6007-1.0172-8.4269c0.554-6.7437-2.0911-12.4137-5.7863-17.6588
	c-9.8016-13.9118-19.886-27.5286-33.3613-38.3358c-10.7704-8.638-20.1377-18.9943-32.9528-25.0666
	c-3.5071-1.6617-8.0219-3.7449-8.9878-7.9644c-0.953-4.1636-3.7314-5.6209-6.8056-7.1339c-3.6999-1.821-7.0441-3.8274-9.6636-7.2619
	c-2.5928-3.3999-6.9575-5.6246-10.8719-4.6359c-5.5016,1.3896-8.1898-1.4429-11.1829-4.693
	c-2.7986-3.0394-6.0662-5.4863-9.3441-7.9861c-2.6738-2.0391-5.6039-4.319-5.6014-8.3474
	c0.0062-9.1486-2.366-18.0585-2.1245-27.3149c0.2705-10.379-0.8569-20.9209-2.3613-31.1145
	c-1.8162-12.3056,0.384-23.7715,2.965-35.3456c3.2626-14.628,10.5829-27.4667,18.9374-39.782
	c5.9786-8.8136,3.2944-16.6376-6.6998-20.118c-2.3362-0.8136-5.3817-0.2914-6.8214-2.7348
	c-3.4442-5.8454-8.5406-10.0607-14.6528-12.0059c-5.8037-1.8468-6.6518-9.5706-13.0273-9.7733
	c-5.5938-0.1782-6.7731-3.4314-6.6664-8.1003c0.058-2.5277,0.0895-5.0901-0.2454-7.586c-0.6895-5.1404-2.8854-7.1642-8.0052-7.6816
	c-3.2043-0.3238-6.2073,0.3872-9.2504,1.5181c-5.3121,1.9737-10.7439,3.6446-16.1799,5.2601
	c-4.92,1.4622-9.6005,0.666-12.918-3.3779c-7.5261-9.1739-18.3248-11.6925-28.862-14.8627
	c-9.9002-2.9784-20.1133-1.3847-30.1509-2.1999c-13.3254-1.0817-25.6141,2.3667-37.7809,6.9603
	c-6.6198,2.4994-12.5023,6.0575-16.5154,12.1135c-1.9674,2.9693-4.3995,5.5543-7.7031,6.7952
	c-3.1877,1.1977-5.2908,3.5405-7.1281,5.9883c-4.3515,5.7965-12.3038,9.3734-11.6607,18.3756
	c0.0315,0.4415-0.7057,0.9764-1.1446,1.4074c-8.7596,8.609-13.6523,19.3933-17.7474,30.7374
	c-1.8006,4.9878-5.3889,9.2729-6.2335,14.7092c-7.2468,4.2893-8.1335,12.3506-11.3608,19.0374
	c-0.653,1.3527-1.203,2.8847-2.7671,3.6882c-6.0106,3.0891-10.7694,7.7644-15.898,12.0606
	c-4.8915,4.0977-8.6051,11.2144-17.0417,9.2022c-1.2708-0.303-2.6701,1.0806-2.555,2.279c0.3345,3.4911,1.7361,6.7532,3.9153,9.4629
	c1.7489,2.1746,3.2798-0.0399,4.8356-0.8597c1.583-0.8342,3.8759-0.2587,4.4343,0.5396c4.2515,6.0807,9.2249,3.4983,14.2,1.6737
	c0.1364,2.7668,3.2324,5.2049,1.7761,7.8138c-2.7093,4.8542-7.1295,9.1474-1.9558,14.9915c0.248,0.2802-0.769,1.5751-1.0488,2.4451
	c-2.6024,8.097-4.365,16.3565-9.5066,23.6745c-1.7523,2.4943-6.8754,5.1945-4.4693,9.4198c1.8851,3.3103,7.087,2.1987,9.8485,5.2961
	c0.769,1.8308-0.9532,3.4259-0.9745,5.2706c-0.0244,2.1208-0.9156,4.7287,1.6051,5.954c2.0226,0.9829,4.3028,0.766,6.4518-0.1977
	c2.1449-0.9618,3.2468-2.9048,4.6867-4.5677c1.1226-1.2963,1.1193-3.907,3.8813-3.499c2.1908,2.3159,0.8231,4.4932-0.1763,6.8295
	c-2.8181,6.5873-2.2124,13.6602-2.6828,20.5775c-0.1696,2.4912,0.7245,4.5461,3.1617,5.182
	c1.8108,0.4725,3.8017,0.2035,4.564-2.1975c0.5414-1.7065,1.9199-3.1783,3.2561-1.2675c3.6356,5.1992,5.8751,2.1486,8.6705-0.8219
	c4.57-4.857,6.6706-10.5866,6.4718-17.105c-0.0471-1.5489-0.9822-3.3999,0.4621-4.3301c3.9214-2.5249,5.1759-7.1394,8.084-11.0868
	c3.27,5.651,0.7683,9.6272-2.0015,12.8582c-4.0371,4.7092-4.3007,9.088-0.2473,13.4669c2.3926,2.5843,2.568,5.7577,0.8787,7.6806
	c-2.6873,3.0587-2.4353,6.3333-2.633,9.723c-0.5313,9.1194-4.6899,14.8636-13.7875,17.8991
	c-9.0679,3.0255-17.9655,5.2223-27.626,5.1718c-20.5516-0.1076-40.8285,2.1301-60.5438,8.5232
	c-20.2488,6.5662-41.0426,9.6292-62.3817,8.5371c-5.391-0.276-10.6885,0.2826-16.0055,1.5116
	c-20.1714,4.6635-40.3126,9.4117-60.39,14.4937c-19.5141,4.9395-39.5002,7.8595-59.6745,8.541
	c-13.5636,0.4582-27.1528,0.1849-40.7303,0.2065c-8.8245,0.0139-17.6882,0.6843-26.3673-1.7292
	c-2.1145-0.5883-4.332-0.8036-6.4996-1.204c-2.0987-0.3874-3.7917,0.3398-4.825,2.13c-1.0448,1.8109-0.7551,3.7975,0.541,5.3207
	c1.2054,1.4169,2.7559,2.568,4.2561,3.7015c7.6925,5.812,16.1145,9.8944,25.8957,10.5987c3.0324,0.2183,5.3335,0.6973,5.7828,4.6389
	c0.4387,3.8458,3.6017,5.5974,7.2266,6.5727c5.2151,1.403,10.4338,2.4242,15.8823,2.1625
	c20.5599-0.9868,41.0011,1.2763,61.5301,2.334c0.2074,3.818-2.1618,6.287-4.5341,8.728c-3.0895,3.1792-6.2737,6.2673-9.3272,9.4803
	c-3.2976,3.4698-6.0693,7.3708-7.2371,12.0488c-0.8641,3.4612-0.7238,7.0573,2.5379,9.5014
	c3.5175,2.6362,6.5771,0.8595,9.4499-1.3629c5.0003-3.8679,9.62-8.1666,13.4423-13.2043
	c6.6676-8.7878,15.5654-14.6617,25.1759-19.5996c6.1955-3.1831,12.5492-6.165,17.6152-11.021
	c4.2053-4.0307,9.4785-5.7513,14.6609-5.281c9.1296,0.8286,18.3039-0.0615,27.3414,1.0523
	c21.3551,2.6311,42.8952,1.3121,64.2645,3.4268c5.3926,0.5338,10.4702-1.9491,15.9444-1.9602
	c9.1233-0.0183,18.1608-1.5876,27.1542-3.1851c11.4988-2.0424,22.9386-3.9295,34.6673-0.9474
	c5.2448,1.3334,10.9007,0.7641,15.7336-1.8772c7.3934-4.0406,15.2668-3.2296,23.1249-3.3857
	c4.1682-0.0828,5.7088,1.6846,7.1137,5.7232c3.7757,10.8557,5.056,21.8573,5.8677,33.2619
	c0.4343,6.1038-1.0922,9.5984-5.349,12.4717c-7.4196,5.0081-13.6919,11.1847-19.2943,18.0392
	c-12.6271,15.4489-26.1609,29.9258-42.0937,42.0932c-9.9984,7.6356-19.2182,16.4185-32.152,19.0851
	c-1.5139,0.312-3.2598,0.8306-4.3074,1.8566c-7.1218,6.9745-16.5072,5.8533-24.8451,5.7932
	c-17.3586-0.1253-33.4392-5.2269-46.5324-17.517c-1.124-1.055-2.6534-1.6751-3.9845-2.5129
	c-9.0558-5.6989-18.7973-10.3923-26.3947-18.2308c-1.0613-1.095-2.5854-1.8726-4.0358-2.4344
	c-4.1415-1.6045-6.8061,0.6262-6.1927,5.1354c0.6259,4.6012,3.1707,8.4077,6.2769,11.4741
	c5.1613,5.095,10.7407,9.8004,16.407,14.3417c8.8779,7.1156,18.2371,13.8195,25.2394,22.8165
	c5.0001,6.4249,10.6917,11.5392,17.8318,15.1696c5.3822,2.7367,8.6624,6.9825,10.1923,13.0567
	c-4.0726,1.5696-7.7899,2.8379-11.9964,3.1659c-7.2863,0.5682-13.3015,4.0186-17.2132,10.3308
	c-1.3912,2.2448-3.5799,4.8581-1.2088,7.7797c1.9769,2.4363,4.4677,1.5651,6.9605,0.8057
	c8.7556-2.6672,17.5799-4.0411,26.8735-4.2985c18.4563-0.5112,34.2245-8.1938,46.4531-22.1154
	c10.6071-12.0753,22.8621-21.563,38.1171-26.8448c8.6587-2.9977,17.0508-6.5719,25.1824-10.7617
	c12.6253-6.5047,25.521-12.4725,37.8192-19.6305c6.5001-3.7834,9.0101-3.0504,11.7324,3.6777
	c3.2869,8.1242,7.7354,15.8178,8.808,24.8459c0.5048,4.2459,2.33,8.2149,6.2895,11.2205
	c10.8409,8.2299,22.0154,15.8731,33.8742,22.5693c6.0746,3.4301,12.577,5.1008,19.1606,3.5815
	c10.1834-2.3499,20.1187,0.4228,30.1634,0.2669c2.0085-0.0312,4.7347-0.3973,4.8929,2.9597
	c0.1058,2.2475,0.2496,5.3217-2.1574,5.7397c-6.4523,1.1201-7.9627,6.2173-10.5018,10.8932
	c-1.2828,2.3621-3.501,4.4094-6.346,5.4649c-2.0447,0.7585-4.2601,1.5717-5.8415,2.9849
	c-14.3176,12.7967-28.1204,26.1467-42.0905,39.3162c-5.0915,4.7997-9.0273,11.86-17.0447,12.7458
	c-5.7786,0.6384-8.2919,3.908-8.9681,9.249c-1.1026,8.7077-5.2789,16.0429-10.2862,23.0158
	c-6.2839,8.7509-11.3443,18.1264-15.0437,28.2886c-8.5348,23.4464-18.837,45.9536-35.5932,64.9187
	c-1.0056,1.1384-2.4759,3.4902-2.082,3.9971c5.6809,7.3121-1.8027,9.9528-4.9632,13.7769c-3.028,3.6634-6.4135,6.9985-8.0736,11.562
	c-0.9532,2.6204-0.9446,5.3671,2.2704,6.1331c3.3906,0.8079,3.4412,2.8737,3.4482,5.5975
	c0.0221,8.5396,0.3696,17.0787,0.3473,25.6174c-0.0109,4.2309-1.4501,8.2043-4.7983,10.9337
	c-4.9574,4.0412-8.2211,9.4252-11.9985,14.3853c-4.1132,5.4011-6.4569,11.6912-6.3098,18.4832
	c0.1615,7.4693-1.5666,14.7119-4.3798,21.1882c-4.306,9.9132-5.5411,19.9689-5.3049,30.446
	c0.186,8.2462-0.9704,16.5161-2.8473,24.3025c-1.9537,8.1048-2.5553,16.1382-3.264,24.2833
	c-0.3883,4.4641,0.8491,7.0518,5.8445,7.8118c7.1768,1.0919,13.8302,3.9792,20.552,6.7972
	c5.5132,2.3112,10.5537,5.4547,16.037,7.7264c10.1753,4.2157,20.8729,4.2323,31.6636,4.4114
	c9.751,0.1621,19.2766,2.2079,28.1749,6.5914c3.1981,1.5756,4.9836,3.6532,4.3935,7.417
	c-2.243,14.3018-5.0203,28.5546-6.4307,42.9404c-1.0797,11.0096-3.5456,21.7494-5.0595,32.6588
	c-1.4211,10.2422-1.5668,20.6125-4.3492,30.8059c-5.3947,19.7644-8.7521,40.0457-8.7364,60.5933
	c0.0065,8.6721-0.9219,16.9801-3.7377,25.0062c-5.1351,14.6376-8.5322,29.4733-10.0167,45.0237
	c-0.7472,7.8248-0.8196,15.7155-1.815,23.5322c-1.3907,10.9205-2.6195,21.885-3.2809,32.8689
	c-0.8374,13.9092,0.3995,27.7322,3.3322,41.3882c0.7395,3.4426,0.3897,6.7787-0.9316,10.1924
	c-3.4057,8.8007-6.6318,17.6796-9.6269,26.6287c-6.4711,19.3359-15.5304,37.8826-17.4363,58.6266
	c-0.4918,5.3528-3.4537,10.0966-6.4903,14.5825c-4.255,6.2852-8.3856,12.656-12.7253,18.8816
	c-1.6116,2.3123-2.1498,5.0872-4.3378,7.2314c-8.168,8.0052-14.1389,17.7792-20.855,26.9513
	c-2.7717,3.7855-3.4848,7.9275-2.9791,12.5706c0.9254,8.4949,1.5782,17.0223,2.1964,25.5468
	c0.4426,6.1018,2.8028,10.7887,8.4492,13.7413c2.7756,1.4515,5.4798,3.2678,7.7579,5.4075
	c17.9794,16.8877,37.7694,31.8026,54.5503,49.9858c2.2607,2.4495,4.8347,3.9434,8.0507,4.6172
	c14.2577,2.9875,28.6393,5.97,43.1494,6.2518c43.3315,0.8412,86.6756,0.2314,130.0128-0.4443
	c8.769-0.1367,17.5054,0.3276,26.3221-0.1754c5.583-0.3184,11.3442-0.4393,16.8032-1.3292
	c10.2482-1.6708,13.7961-9.694,9.471-18.931c-1.0402-2.2222-2.395-3.5964-4.6359-4.2683
	c-6.6161-1.9829-13.1055-3.9698-20.1006-4.9758c-11.6749-1.6788-23.7316-2.5607-34.2774-9.452
	c-5.5461-3.6241-11.3883-6.5444-15.4545-12.0359c-1.0829-1.4624-2.7518-2.8436-4.4424-3.444
	c-9.127-3.241-15.055-12.1692-24.1811-14.6169c-11.3754-3.0514-10.8558-14.7351-17.515-20.9442
	c-2.9207-2.7233-3.6904-6.3499-5.0321-9.9031c-3.3427-8.8535-2.2818-18.1029-3.3181-27.1498
	c-2.0421-17.8257-5.3051-35.5336-5.1685-53.5734c0.0216-2.843,0.1005-5.762-0.463-8.5199
	c-2.8229-13.8127-1.7333-27.765-0.9354-41.5778c0.9451-16.3588,3.5296-32.6648,3.1345-49.0679
	c-0.2092-8.6881,1.7457-16.3755,6.5834-23.1707c13.9267-19.5616,24.8986-41.0096,38.7931-60.5514
	c9.0728-12.761,17.617-26.1211,30.6176-35.563c7.9286-5.7582,15.4902-11.9608,22.7767-18.516
	c10.7548-9.6749,19.6418-20.9442,22.3601-35.2084c1.8628-9.7758,6.0408-19.3977,4.4118-29.7672
	c-0.186-1.1844,0.096-2.618,0.6259-3.7107c3.5685-7.3595,3.8402-15.3031,4.0792-23.1995c0.3521-11.63,2.8399-23.0125,3.4855-34.6686
	c0.5716-10.3193,1.4668-21.42,8.3177-30.5271c2.1792-2.8967,1.3821-6.0865,0.335-9.7777
	c-3.1408-11.0717-0.7897-22.4596-0.2566-33.7224c0.0276-0.5842,0.553-1.1296,0.7604-1.7231
	c5.1156-14.6393,8.4863-29.6824,9.2869-45.1638c0.344-6.6513,0.5391-13.2566,2.4954-19.6398
	c0.8748-2.8546,1.5315-5.8696-0.0793-8.2614c-2.9781-4.4208-1.6327-7.7026,1.7793-10.7776
	c5.8721-5.2919,6.5374-11.1721,4.3788-18.8211c-1.5408-5.4594-4.0991-11.3264-2.2817-17.4472
	c3.8583-12.9929,3.8401-26.1331,1.9572-39.4511c-1.1045-7.8143-0.5784-15.3699,2.0367-23.239
	c2.861-8.6086,7.7567-15.7446,12.0193-23.4372c7.1659-12.9315,12.4483-26.8137,20.8854-39.1683
	c4.8136-7.0486,6.2779-15.7048,6.2676-24.4399c-0.0176-14.9678,3.9551-29.3315,8.2761-43.3889
	c6.9861-22.7254,11.5141-45.7798,12.4875-69.4832c0.325-7.9112,0.5872-15.6823,2.8042-23.3808
	c3.7239-12.9318,4.5301-26.366,2.2474-39.4381c-2.0834-11.9296-1.8396-23.8817-2.9935-35.7897
	c-0.1499-1.5461-0.3633-3.5765,0.4373-4.6446c5.1683-6.8948,5.976-15.8853,11.2563-22.7151
	c7.3598-9.5198,10.4215-20.6418,11.6417-32.4151c0.4876-4.7041,0.7641-9.4951,1.9208-14.0472
	C779.9592,491.3862,778.887,486.5993,778.6949,481.6096z"/>
</svg>
